# WaveFront *.obj file (generated by Autodesk ATF)

mtllib 2d5bb20f-7fa7-461e-9b60-74cd84e1646d.mtl

g Body1

v 33.660254 25.000000 0.000000
v 0.000000 25.000000 0.000000
v 0.000000 25.000000 10.037578
v 16.274659 25.000000 10.037578
v 33.660254 0.000000 0.000000
v 16.274659 10.037578 10.037578
v 0.000000 0.000000 0.000000
v 0.000000 10.037578 10.037578
vt -0.866025 0.000000 0.000000
vt 2.500000 0.000000 0.000000
vt 0.872534 1.003758 0.000000
vt 2.500000 1.003758 0.000000
vt 0.000000 -0.500000 0.000000
vt 2.500000 -0.500000 0.000000
vt 1.003758 1.507516 0.000000
vt 2.500000 1.507516 0.000000
vt 3.366025 0.000000 0.000000
vt 1.627466 1.419528 0.000000
vt 0.000000 0.000000 0.000000
vt 0.000000 1.419528 0.000000
vt 2.500000 0.000000 0.000000
vt 1.496242 1.003758 0.000000
vt 0.000000 0.000000 0.000000
vt 0.000000 1.003758 0.000000
vt -1.250000 -0.326779 0.000000
vt 0.377466 -0.326779 0.000000
vt -1.250000 1.169463 0.000000
vt 0.377466 1.169463 0.000000
vt 1.250000 1.250000 0.000000
vt -2.116025 1.250000 0.000000
vt 1.250000 -1.250000 0.000000
vt -2.116025 -1.250000 0.000000
vn 0.000000 0.100000 0.000000
vn 0.000000 0.100000 0.000000
vn 0.000000 0.100000 0.000000
vn 0.000000 0.100000 0.000000
vn 0.050000 0.000000 0.086603
vn 0.050000 0.000000 0.086603
vn 0.050000 0.000000 0.086603
vn 0.050000 0.000000 0.086603
vn 0.000000 -0.070711 0.070711
vn 0.000000 -0.070711 0.070711
vn 0.000000 -0.070711 0.070711
vn 0.000000 -0.070711 0.070711
vn -0.100000 0.000000 0.000000
vn -0.100000 0.000000 0.000000
vn -0.100000 0.000000 0.000000
vn -0.100000 0.000000 0.000000
vn 0.000000 0.000000 0.100000
vn 0.000000 0.000000 0.100000
vn 0.000000 0.000000 0.100000
vn 0.000000 0.000000 0.100000
vn 0.000000 0.000000 -0.100000
vn 0.000000 0.000000 -0.100000
vn 0.000000 0.000000 -0.100000
vn 0.000000 0.000000 -0.100000
usemtl Steel_-_Satin
f 1/1/1 2/2/2 4/3/3
f 4/3/3 2/2/2 3/4/4
f 5/5/5 1/6/6 6/7/7
f 6/7/7 1/6/6 4/8/8
f 5/9/9 6/10/10 7/11/11
f 7/11/11 6/10/10 8/12/12
f 7/13/13 8/14/14 2/15/15
f 2/15/15 8/14/14 3/16/16
f 8/17/17 6/18/18 3/19/19
f 3/19/19 6/18/18 4/20/20
f 2/21/21 1/22/22 7/23/23
f 7/23/23 1/22/22 5/24/24

# 8 vertices
# 24 texture params
# 24 normals
# 12 facets

# 1 groups
